<?xml version="1.0" encoding="utf-8"?>
<!-- Generator: Adobe Illustrator 26.1.0, SVG Export Plug-In . SVG Version: 6.00 Build 0)  -->
<svg version="1.1" id="Layer_1" xmlns="http://www.w3.org/2000/svg" xmlns:xlink="http://www.w3.org/1999/xlink" x="0px" y="0px"
	 viewBox="0 0 64 64" style="enable-background:new 0 0 64 64;" xml:space="preserve">
<style type="text/css">
	.st0{fill:#373737;}
</style>
<g>
	<g>
		<path class="st0" d="M58.5,55.2h-9.9c-0.3,0-0.6-0.2-0.6-0.6V12.7c0-0.3,0.2-0.6,0.6-0.6c0.3,0,0.6,0.2,0.6,0.6v41.4h8.8V13.8
			c0-7-5.7-12.7-12.7-12.7h-2.9C41.5,3.7,37.2,5.5,32,5.5s-9.5-1.9-10.4-4.4h-2.9c-7,0-12.7,5.7-12.7,12.7v40.3h8.8V12.7
			c0-0.3,0.2-0.6,0.6-0.6s0.6,0.2,0.6,0.6v41.9c0,0.3-0.2,0.6-0.6,0.6H5.5c-0.3,0-0.6-0.2-0.6-0.6V13.8C5,6.2,11.2,0,18.8,0h3.3
			c0.3,0,0.5,0.2,0.5,0.5c0.3,2.2,4.5,3.9,9.4,3.9s9.1-1.8,9.4-3.9c0-0.3,0.3-0.5,0.5-0.5h3.3C52.8,0,59,6.2,59,13.8v40.8
			C59,54.9,58.8,55.2,58.5,55.2z"/>
	</g>
</g>
<g>
	<g>
		<path class="st0" d="M58.5,61.8h-9.9c-0.3,0-0.6-0.2-0.6-0.6v-6.6c0-0.3,0.2-0.6,0.6-0.6h9.9c0.3,0,0.6,0.2,0.6,0.6v6.6
			C59,61.5,58.8,61.8,58.5,61.8z M49.1,60.7h8.8v-5.5h-8.8V60.7z"/>
	</g>
</g>
<g>
	<g>
		<path class="st0" d="M15.4,61.8H5.5c-0.3,0-0.6-0.2-0.6-0.6v-6.6c0-0.3,0.2-0.6,0.6-0.6h9.9c0.3,0,0.6,0.2,0.6,0.6v6.6
			C16,61.5,15.8,61.8,15.4,61.8z M6.1,60.7h8.8v-5.5H6.1V60.7z"/>
	</g>
</g>
<g>
	<g>
		<path class="st0" d="M32,12.1c-5.8,0-10.5-4.7-10.5-10.5V0.6C21.5,0.3,21.7,0,22,0c0.3,0,0.5,0.2,0.6,0.5c0.3,2.2,4.5,3.9,9.4,3.9
			s9.1-1.8,9.4-3.9C41.4,0.2,41.7,0,42,0c0.3,0,0.5,0.3,0.5,0.6v1.1C42.5,7.4,37.8,12.1,32,12.1z M22.7,2.7C23.2,7.4,27.2,11,32,11
			s8.8-3.7,9.3-8.3c-1.7,1.7-5.3,2.8-9.3,2.8S24.4,4.4,22.7,2.7z"/>
	</g>
</g>
<g>
	<g>
		<path class="st0" d="M48.6,64H15.4c-0.3,0-0.6-0.2-0.6-0.6v-6.6c0-0.3,0.2-0.6,0.6-0.6h33.1c0.3,0,0.6,0.2,0.6,0.6v6.6
			C49.1,63.8,48.9,64,48.6,64z M16,62.9h32v-5.5H16V62.9z"/>
	</g>
</g>
<g>
	<g>
		<path class="st0" d="M22.1,64c-0.3,0-0.6-0.2-0.6-0.6v-6.6c0-0.3,0.2-0.6,0.6-0.6s0.6,0.2,0.6,0.6v6.6C22.6,63.8,22.4,64,22.1,64z
			"/>
	</g>
</g>
<g>
	<g>
		<path class="st0" d="M18.8,64c-0.3,0-0.6-0.2-0.6-0.6v-6.6c0-0.3,0.2-0.6,0.6-0.6s0.6,0.2,0.6,0.6v6.6C19.3,63.8,19.1,64,18.8,64z
			"/>
	</g>
</g>
<g>
	<g>
		<path class="st0" d="M25.4,64c-0.3,0-0.6-0.2-0.6-0.6v-6.6c0-0.3,0.2-0.6,0.6-0.6s0.6,0.2,0.6,0.6v6.6C25.9,63.8,25.7,64,25.4,64z
			"/>
	</g>
</g>
<g>
	<g>
		<path class="st0" d="M28.7,64c-0.3,0-0.6-0.2-0.6-0.6v-6.6c0-0.3,0.2-0.6,0.6-0.6s0.6,0.2,0.6,0.6v6.6C29.2,63.8,29,64,28.7,64z"
			/>
	</g>
</g>
<g>
	<g>
		<path class="st0" d="M32,64c-0.3,0-0.6-0.2-0.6-0.6v-6.6c0-0.3,0.2-0.6,0.6-0.6c0.3,0,0.6,0.2,0.6,0.6v6.6
			C32.6,63.8,32.3,64,32,64z"/>
	</g>
</g>
<g>
	<g>
		<path class="st0" d="M35.3,64c-0.3,0-0.6-0.2-0.6-0.6v-6.6c0-0.3,0.2-0.6,0.6-0.6s0.6,0.2,0.6,0.6v6.6C35.9,63.8,35.6,64,35.3,64z
			"/>
	</g>
</g>
<g>
	<g>
		<path class="st0" d="M38.6,64c-0.3,0-0.6-0.2-0.6-0.6v-6.6c0-0.3,0.2-0.6,0.6-0.6s0.6,0.2,0.6,0.6v6.6C39.2,63.8,38.9,64,38.6,64z
			"/>
	</g>
</g>
<g>
	<g>
		<path class="st0" d="M41.9,64c-0.3,0-0.6-0.2-0.6-0.6v-6.6c0-0.3,0.2-0.6,0.6-0.6s0.6,0.2,0.6,0.6v6.6C42.5,63.8,42.2,64,41.9,64z
			"/>
	</g>
</g>
<g>
	<g>
		<path class="st0" d="M45.2,64c-0.3,0-0.6-0.2-0.6-0.6v-6.6c0-0.3,0.2-0.6,0.6-0.6s0.6,0.2,0.6,0.6v6.6C45.8,63.8,45.5,64,45.2,64z
			"/>
	</g>
</g>
<g>
	<g>
		<path class="st0" d="M51.9,61.8c-0.3,0-0.6-0.2-0.6-0.6v-6.6c0-0.3,0.2-0.6,0.6-0.6c0.3,0,0.6,0.2,0.6,0.6v6.6
			C52.4,61.5,52.2,61.8,51.9,61.8z"/>
	</g>
</g>
<g>
	<g>
		<path class="st0" d="M55.2,61.8c-0.3,0-0.6-0.2-0.6-0.6v-6.6c0-0.3,0.2-0.6,0.6-0.6c0.3,0,0.6,0.2,0.6,0.6v6.6
			C55.7,61.5,55.5,61.8,55.2,61.8z"/>
	</g>
</g>
<g>
	<g>
		<path class="st0" d="M8.8,61.8c-0.3,0-0.6-0.2-0.6-0.6v-6.6c0-0.3,0.2-0.6,0.6-0.6s0.6,0.2,0.6,0.6v6.6
			C9.4,61.5,9.1,61.8,8.8,61.8z"/>
	</g>
</g>
<g>
	<g>
		<path class="st0" d="M12.1,61.8c-0.3,0-0.6-0.2-0.6-0.6v-6.6c0-0.3,0.2-0.6,0.6-0.6s0.6,0.2,0.6,0.6v6.6
			C12.7,61.5,12.4,61.8,12.1,61.8z"/>
	</g>
</g>
<g>
	<g>
		<path class="st0" d="M48.6,57.4H15.4c-0.3,0-0.6-0.2-0.6-0.6V12.7c0-0.3,0.2-0.6,0.6-0.6s0.6,0.2,0.6,0.6v43.6h32V12.7
			c0-0.3,0.2-0.6,0.6-0.6c0.3,0,0.6,0.2,0.6,0.6v44.1C49.1,57.1,48.9,57.4,48.6,57.4z"/>
	</g>
</g>
</svg>
