<?xml version="1.0" encoding="utf-8"?>
<!-- Generator: Adobe Illustrator 26.1.0, SVG Export Plug-In . SVG Version: 6.00 Build 0)  -->
<svg version="1.1" id="Layer_1" xmlns="http://www.w3.org/2000/svg" xmlns:xlink="http://www.w3.org/1999/xlink" x="0px" y="0px"
	 viewBox="0 0 64 64" style="enable-background:new 0 0 64 64;" xml:space="preserve">
<style type="text/css">
	.st0{fill:#373737;}
</style>
<g>
	<path class="st0" d="M14,55H3.3c-0.8,0-1.6-0.4-2.2-1s-0.7-1.5-0.6-2.3L9,9.4C9,9.2,9.3,9,9.5,9c0.3,0,0.5,0.1,0.6,0.4L14.6,24
		c0,0.1,0,0.1,0,0.2v30.3C14.6,54.8,14.3,55,14,55z M9.7,11.8l-8,40.1c-0.1,0.5,0,1,0.3,1.4c0.3,0.4,0.8,0.6,1.3,0.6h10.2V24.2
		L9.7,11.8z"/>
</g>
<g>
	<path class="st0" d="M60.7,55H50c-0.3,0-0.6-0.3-0.6-0.6V24.1c0-0.1,0-0.1,0-0.2l4.5-14.6C54,9.1,54.2,9,54.5,9
		C54.7,9,55,9.2,55,9.4l8.4,42.2c0.2,0.8,0,1.7-0.6,2.3C62.3,54.6,61.5,55,60.7,55z M50.5,53.9h10.2c0.5,0,1-0.2,1.3-0.6
		c0.3-0.4,0.4-0.9,0.3-1.4l-8-40.1l-3.8,12.4V53.9z"/>
</g>
<g>
	<path class="st0" d="M14,59.5H2.8c-0.2,0-0.3-0.1-0.4-0.2c-0.1-0.1-0.1-0.3-0.1-0.5l1.1-4.5c0.1-0.2,0.3-0.4,0.5-0.4H14
		c0.3,0,0.6,0.3,0.6,0.6v4.5C14.6,59.3,14.3,59.5,14,59.5z M3.5,58.4h9.9V55H4.4L3.5,58.4z"/>
</g>
<g>
	<path class="st0" d="M61.2,59.5H50c-0.3,0-0.6-0.3-0.6-0.6v-4.5c0-0.3,0.3-0.6,0.6-0.6h10.1c0.3,0,0.5,0.2,0.5,0.4l1.1,4.5
		c0,0.2,0,0.3-0.1,0.5C61.5,59.4,61.4,59.5,61.2,59.5z M50.5,58.4h9.9L59.6,55h-9.1V58.4z"/>
</g>
<g>
	<path class="st0" d="M50,64H14c-0.3,0-0.6-0.3-0.6-0.6v-4.5c0-0.3,0.3-0.6,0.6-0.6H50c0.3,0,0.6,0.3,0.6,0.6v4.5
		C50.5,63.7,50.3,64,50,64z M14.6,62.9h34.8v-3.4H14.6V62.9z"/>
</g>
<g>
	<path class="st0" d="M32,16.8c-0.1,0-0.2,0-0.3-0.1l-16.8-9c-0.2-0.1-0.4-0.4-0.3-0.7l2.2-6.7c0.1-0.2,0.2-0.3,0.4-0.4
		c0.2,0,0.4,0,0.5,0.1l14.6,12.4c0.1,0.1,0.2,0.3,0.2,0.4v3.4c0,0.2-0.1,0.4-0.3,0.5C32.2,16.8,32.1,16.8,32,16.8z M15.8,7l15.6,8.3
		v-2.2L17.7,1.5L15.8,7z"/>
</g>
<g>
	<path class="st0" d="M29.8,29.2c-0.3,0-0.6-0.3-0.6-0.6V15.2c0-0.3,0.3-0.6,0.6-0.6c0.3,0,0.6,0.3,0.6,0.6v13.5
		C30.3,28.9,30.1,29.2,29.8,29.2z"/>
</g>
<g>
	<path class="st0" d="M34.2,29.2c-0.3,0-0.6-0.3-0.6-0.6V15.2c0-0.3,0.3-0.6,0.6-0.6s0.6,0.3,0.6,0.6v13.5
		C34.8,28.9,34.6,29.2,34.2,29.2z"/>
</g>
<g>
	<path class="st0" d="M50,59.5H14c-0.3,0-0.6-0.3-0.6-0.6V24.2L9,9.7C8.9,9.4,9.1,9.1,9.3,9l5.6-2.2c0.2-0.1,0.3-0.1,0.5,0L32,15.6
		l16.6-8.8c0.1-0.1,0.3-0.1,0.5,0L54.7,9c0.3,0.1,0.4,0.4,0.3,0.7l-4.5,14.5v34.7C50.5,59.3,50.3,59.5,50,59.5z M14.6,58.4h34.8
		V24.1c0-0.1,0-0.1,0-0.2l4.3-14.1l-4.9-2l-16.6,8.9c-0.2,0.1-0.4,0.1-0.5,0L15.1,7.9l-4.9,2L14.6,24c0,0.1,0,0.1,0,0.2V58.4z"/>
</g>
<g>
	<path class="st0" d="M32,13.5c-0.1,0-0.3,0-0.4-0.1L17,1c-0.2-0.2-0.2-0.4-0.2-0.6C17,0.1,17.2,0,17.4,0h29.2
		c0.2,0,0.4,0.1,0.5,0.4c0.1,0.2,0,0.5-0.2,0.6L32.4,13.3C32.3,13.4,32.1,13.5,32,13.5z M18.9,1.1L32,12.2L45.1,1.1H18.9z"/>
</g>
<g>
	<path class="st0" d="M32,16.8c-0.1,0-0.2,0-0.3-0.1c-0.2-0.1-0.3-0.3-0.3-0.5v-3.4c0-0.2,0.1-0.3,0.2-0.4L46.2,0.1
		C46.4,0,46.6,0,46.7,0c0.2,0.1,0.3,0.2,0.4,0.4l2.2,6.7c0.1,0.3,0,0.5-0.3,0.7l-16.8,9C32.2,16.8,32.1,16.8,32,16.8z M32.6,13.2
		v2.2L48.2,7l-1.8-5.5L32.6,13.2z"/>
</g>
</svg>
