<?xml version="1.0" encoding="utf-8"?>
<!-- Generator: Adobe Illustrator 26.1.0, SVG Export Plug-In . SVG Version: 6.00 Build 0)  -->
<svg version="1.1" id="Layer_1" xmlns="http://www.w3.org/2000/svg" xmlns:xlink="http://www.w3.org/1999/xlink" x="0px" y="0px"
	 viewBox="0 0 64 64" style="enable-background:new 0 0 64 64;" xml:space="preserve">
<style type="text/css">
	.st0{fill:#373737;}
</style>
<g>
	<path class="st0" d="M51.1,7.8H12.9c-0.3,0-0.6-0.3-0.6-0.6V0.5c0-0.3,0.3-0.6,0.6-0.6h38.2c0.3,0,0.6,0.3,0.6,0.6v6.7
		C51.7,7.6,51.4,7.8,51.1,7.8z M13.5,6.7h37.1V1.1H13.5V6.7z"/>
</g>
<g>
	<path class="st0" d="M32,7.8c-0.3,0-0.6-0.3-0.6-0.6V0.5C31.5,0.2,31.7,0,32,0c0.3,0,0.6,0.3,0.6,0.6v6.7C32.6,7.6,32.3,7.8,32,7.8
		z"/>
</g>
<g>
	<path class="st0" d="M23,7.8c-0.3,0-0.6-0.3-0.6-0.6V0.5C22.5,0.2,22.7,0,23,0s0.6,0.3,0.6,0.6v6.7C23.6,7.6,23.3,7.8,23,7.8z"/>
</g>
<g>
	<path class="st0" d="M42.1,7.8c-0.3,0-0.6-0.3-0.6-0.6V0.5c0-0.3,0.3-0.6,0.6-0.6c0.3,0,0.6,0.3,0.6,0.6v6.7
		C42.7,7.6,42.4,7.8,42.1,7.8z"/>
</g>
<g>
	<path class="st0" d="M53.4,64H39.9c-0.3,0-0.5-0.2-0.6-0.5L32,25.9l-7.3,37.6c-0.1,0.3-0.3,0.5-0.6,0.5H10.7
		c-0.2,0-0.3-0.1-0.4-0.2c-0.1-0.1-0.2-0.3-0.2-0.4L11.2,14c0,0,0-0.1,0-0.1l1.1-6.7c0-0.3,0.3-0.5,0.6-0.5h38.2
		c0.3,0,0.5,0.2,0.6,0.5l1.1,6.7c0,0,0,0.1,0,0.1l1.1,49.4c0,0.2-0.1,0.3-0.2,0.4C53.7,63.9,53.5,64,53.4,64z M40.3,62.9h12.4
		L51.7,14l-1-6.2H13.4l-1,6.2l-1.1,48.8h12.4l7.8-40c0.1-0.3,0.3-0.5,0.6-0.5c0.3,0,0.5,0.2,0.6,0.5L40.3,62.9z"/>
</g>
<g>
	<path class="st0" d="M52.2,14.6C52.2,14.6,52.2,14.6,52.2,14.6c-3.9-0.1-8.4-3.4-8.4-7.3c0-0.3,0.3-0.6,0.6-0.6h6.7
		c0.3,0,0.5,0.2,0.6,0.5l1.1,6.7c0,0.2,0,0.3-0.1,0.5C52.5,14.5,52.4,14.6,52.2,14.6z M45,7.8c0.4,2.8,3.6,5.1,6.6,5.6l-0.9-5.6H45z
		"/>
</g>
<g>
	<path class="st0" d="M11.8,14.6c-0.2,0-0.3-0.1-0.4-0.2c-0.1-0.1-0.2-0.3-0.1-0.5l1.1-6.7c0-0.3,0.3-0.5,0.6-0.5h6.7
		c0.3,0,0.6,0.3,0.6,0.6C20.2,11.2,15.7,14.4,11.8,14.6C11.8,14.6,11.8,14.6,11.8,14.6z M13.4,7.8l-0.9,5.6c3-0.4,6.2-2.8,6.6-5.6
		H13.4z"/>
</g>
<g>
	<path class="st0" d="M32,23.6c-0.3,0-0.6-0.3-0.6-0.6V7.3c0-0.3,0.3-0.6,0.6-0.6c0.3,0,0.6,0.3,0.6,0.6V23
		C32.6,23.3,32.3,23.6,32,23.6z"/>
</g>
<g>
	<path class="st0" d="M32,21.3c-0.3,0-0.6-0.3-0.6-0.6V7.3c0-0.3,0.3-0.6,0.6-0.6h4.5c0.3,0,0.6,0.3,0.6,0.6v9
		C37.1,19,34.8,21.3,32,21.3z M32.6,7.8v12.3c1.9-0.3,3.4-1.9,3.4-3.9V7.8H32.6z"/>
</g>
<g>
	<circle class="st0" cx="35.4" cy="3.9" r="1.1"/>
</g>
</svg>
