<?xml version="1.0" encoding="utf-8"?>
<!-- Generator: Adobe Illustrator 26.1.0, SVG Export Plug-In . SVG Version: 6.00 Build 0)  -->
<svg version="1.1" id="Layer_1" xmlns="http://www.w3.org/2000/svg" xmlns:xlink="http://www.w3.org/1999/xlink" x="0px" y="0px"
	 viewBox="0 0 64 64" style="enable-background:new 0 0 64 64;" xml:space="preserve">
<style type="text/css">
	.st0{fill:none;stroke:#000000;stroke-width:0.9713;stroke-linecap:round;stroke-linejoin:round;stroke-miterlimit:2.6131;}
</style>
<polyline class="st0" points="22.5,7.5 27.7,16.1 32.1,11.8 23.3,0.7 7.7,7.7 0.2,31.3 4.7,58.7 12.3,57.3 "/>
<polyline class="st0" points="12.3,23.2 12.3,63.3 32.1,63.3 51.9,63.3 51.9,23.2 "/>
<polyline class="st0" points="41.7,7.5 36.5,16.1 32.1,11.8 40.8,0.7 56.5,7.7 64,31.3 59.4,58.7 51.9,57.3 "/>
<line class="st0" x1="32.1" y1="11.8" x2="32.1" y2="63.3"/>
<path class="st0" d="M17.8,22.1v8.1l4.9,2.2l4.9-2.2v-8.1 M37,22.1v8.1l4.9,2.2l4.9-2.2v-8.1"/>
</svg>
