<?xml version="1.0" encoding="utf-8"?>
<!-- Generator: Adobe Illustrator 26.1.0, SVG Export Plug-In . SVG Version: 6.00 Build 0)  -->
<svg version="1.1" id="Layer_1" xmlns="http://www.w3.org/2000/svg" xmlns:xlink="http://www.w3.org/1999/xlink" x="0px" y="0px"
	 viewBox="0 0 64 64" style="enable-background:new 0 0 64 64;" xml:space="preserve">
<style type="text/css">
	.st0{fill:#373737;}
</style>
<g>
	<g>
		<path class="st0" d="M63.4,57.3h-7.9c-0.3,0-0.5-0.2-0.5-0.4l-7.9-32.6c0-0.2,0-0.4,0.1-0.5l9-10.1c0.1-0.2,0.4-0.2,0.6-0.2
			c0.2,0.1,0.4,0.2,0.4,0.5L64,56.6c0,0.2,0,0.3-0.1,0.5C63.8,57.2,63.6,57.3,63.4,57.3z M56,56.1h6.8l-6.4-40.8l-8,9L56,56.1z"/>
	</g>
</g>
<g>
	<path class="st0" d="M35.4,64h-6.7c-0.3,0-0.6-0.3-0.6-0.6V17.9c0-0.2,0.1-0.4,0.3-0.5c0.2-0.1,0.4-0.1,0.6,0.1l3,2.5l3-2.5
		c0.2-0.1,0.4-0.2,0.6-0.1c0.2,0.1,0.3,0.3,0.3,0.5v45.5C35.9,63.7,35.7,64,35.4,64z M29.2,62.9h5.6V19.1l-2.4,2.1
		c-0.2,0.2-0.5,0.2-0.7,0l-2.4-2.1V62.9z"/>
</g>
<g>
	<path class="st0" d="M32,21.3c-0.1,0-0.3,0-0.4-0.1L17,8.8c-0.1-0.1-0.2-0.2-0.2-0.4c0-0.1,0-0.3,0.1-0.4l6.7-7.9
		C23.8,0.1,24,0,24.1,0h15.7c0.2,0,0.3,0.1,0.4,0.2L47,8.1c0.1,0.1,0.1,0.3,0.1,0.4c0,0.1-0.1,0.3-0.2,0.4L32.4,21.2
		C32.3,21.3,32.1,21.3,32,21.3z M18.2,8.4L32,20L45.8,8.4l-6.2-7.2H24.4L18.2,8.4z"/>
</g>
<g>
	<path class="st0" d="M32,16.8c-0.2,0-0.4-0.1-0.5-0.3L23.6,0.8c-0.1-0.2-0.1-0.4,0-0.5C23.8,0.1,23.9,0,24.1,0h15.7
		c0.2,0,0.4,0.1,0.5,0.3c0.1,0.2,0.1,0.4,0,0.5l-7.9,15.7C32.4,16.7,32.2,16.8,32,16.8z M25,1.1L32,15l7-13.9H25z"/>
</g>
<g>
	<g>
		<path class="st0" d="M8.4,57.3H0.6c-0.2,0-0.3-0.1-0.4-0.2C0,56.9,0,56.8,0,56.6l6.7-42.7c0-0.2,0.2-0.4,0.4-0.5
			c0.2-0.1,0.4,0,0.6,0.2l9,10.1c0.1,0.1,0.2,0.3,0.1,0.5L9,56.8C8.9,57.1,8.7,57.3,8.4,57.3z M1.2,56.1H8l7.7-31.8l-8-9L1.2,56.1z"
			/>
	</g>
</g>
<g>
	<circle class="st0" cx="32" cy="27.5" r="1.1"/>
</g>
<g>
	<circle class="st0" cx="32" cy="54.5" r="1.1"/>
</g>
<g>
	<circle class="st0" cx="32" cy="45.5" r="1.1"/>
</g>
<g>
	<circle class="st0" cx="32" cy="36.5" r="1.1"/>
</g>
<g>
	<path class="st0" d="M50,56.1h-9c-0.3,0-0.6-0.3-0.6-0.6v-9c0-0.3,0.3-0.6,0.6-0.6h9c0.3,0,0.6,0.3,0.6,0.6v9
		C50.5,55.9,50.3,56.1,50,56.1z M41.5,55h7.9v-7.9h-7.9V55z"/>
</g>
<g>
	<path class="st0" d="M50,47.2h-9c-0.3,0-0.6-0.3-0.6-0.6v-4.5c0-0.3,0.3-0.6,0.6-0.6h9c0.3,0,0.6,0.3,0.6,0.6v4.5
		C50.5,46.9,50.3,47.2,50,47.2z M41.5,46h7.9v-3.4h-7.9V46z"/>
</g>
<g>
	<path class="st0" d="M39.9,28.1c-0.3,0-0.6-0.3-0.6-0.6V14c0-0.3,0.3-0.6,0.6-0.6s0.6,0.3,0.6,0.6v13.5
		C40.4,27.8,40.2,28.1,39.9,28.1z"/>
</g>
<g>
	<path class="st0" d="M24.1,28.1c-0.3,0-0.6-0.3-0.6-0.6V14c0-0.3,0.3-0.6,0.6-0.6c0.3,0,0.6,0.3,0.6,0.6v13.5
		C24.7,27.8,24.5,28.1,24.1,28.1z"/>
</g>
<g>
	<path class="st0" d="M32,5.6h-5.6c-0.3,0-0.6-0.3-0.6-0.6c0-0.3,0.3-0.6,0.6-0.6H32c0.3,0,0.6,0.3,0.6,0.6
		C32.6,5.4,32.3,5.6,32,5.6z"/>
</g>
<g>
	<path class="st0" d="M62.3,52.8h-6.7c-0.3,0-0.6-0.3-0.6-0.6c0-0.3,0.3-0.6,0.6-0.6h6.7c0.3,0,0.6,0.3,0.6,0.6
		C62.9,52.5,62.6,52.8,62.3,52.8z"/>
</g>
<g>
	<path class="st0" d="M8.4,52.8H1.7c-0.3,0-0.6-0.3-0.6-0.6c0-0.3,0.3-0.6,0.6-0.6h6.7c0.3,0,0.6,0.3,0.6,0.6
		C9,52.5,8.7,52.8,8.4,52.8z"/>
</g>
<g>
	<path class="st0" d="M47.7,64H16.3c-0.3,0-0.6-0.3-0.6-0.6v-7.9c0-0.3,0.3-0.6,0.6-0.6h6.2V42.7h-6.2c-0.3,0-0.6-0.3-0.6-0.6V24.4
		l-8.8-9.9c-0.1-0.1-0.2-0.3-0.1-0.5c0-0.2,0.1-0.3,0.3-0.4l10.1-5.6c0.2-0.1,0.5-0.1,0.6,0.1L32,20L46.2,8c0.2-0.2,0.4-0.2,0.6-0.1
		L57,13.5c0.1,0.1,0.3,0.2,0.3,0.4c0,0.2,0,0.3-0.1,0.5l-8.8,9.9v17.8c0,0.3-0.3,0.6-0.6,0.6h-6.2V55h6.2c0.3,0,0.6,0.3,0.6,0.6v7.9
		C48.3,63.7,48,64,47.7,64z M16.8,62.9h30.3v-6.7H41c-0.3,0-0.6-0.3-0.6-0.6V42.1c0-0.3,0.3-0.6,0.6-0.6h6.2V24.1
		c0-0.1,0.1-0.3,0.1-0.4l8.5-9.6l-9.2-5.1L32.4,21.2c-0.2,0.2-0.5,0.2-0.7,0L17.3,9.1l-9.2,5.1l8.5,9.6c0.1,0.1,0.1,0.2,0.1,0.4
		v17.4H23c0.3,0,0.6,0.3,0.6,0.6v13.5c0,0.3-0.3,0.6-0.6,0.6h-6.2V62.9z"/>
</g>
<g>
	<path class="st0" d="M23,56.1h-9c-0.3,0-0.6-0.3-0.6-0.6v-9c0-0.3,0.3-0.6,0.6-0.6h9c0.3,0,0.6,0.3,0.6,0.6v9
		C23.6,55.9,23.3,56.1,23,56.1z M14.6,55h7.9v-7.9h-7.9V55z"/>
</g>
<g>
	<path class="st0" d="M23,47.2h-9c-0.3,0-0.6-0.3-0.6-0.6v-4.5c0-0.3,0.3-0.6,0.6-0.6h9c0.3,0,0.6,0.3,0.6,0.6v4.5
		C23.6,46.9,23.3,47.2,23,47.2z M14.6,46h7.9v-3.4h-7.9V46z"/>
</g>
</svg>
