<?xml version="1.0" encoding="utf-8"?>
<!-- Generator: Adobe Illustrator 26.1.0, SVG Export Plug-In . SVG Version: 6.00 Build 0)  -->
<svg version="1.1" id="Layer_1" xmlns="http://www.w3.org/2000/svg" xmlns:xlink="http://www.w3.org/1999/xlink" x="0px" y="0px"
	 viewBox="0 0 64 64" style="enable-background:new 0 0 64 64;" xml:space="preserve">
<style type="text/css">
	.st0{fill:#373737;}
</style>
<g>
	<path class="st0" d="M11.8,30.3H0.6c-0.3,0-0.6-0.3-0.6-0.6v-4.5c0-0.3,0.3-0.6,0.6-0.6h11.2c0.3,0,0.6,0.3,0.6,0.6v4.5
		C12.4,30,12.1,30.3,11.8,30.3z M1.2,29.2h10.1v-3.4H1.2V29.2z"/>
</g>
<g>
	<path class="st0" d="M63.4,30.3H52.2c-0.3,0-0.6-0.3-0.6-0.6v-4.5c0-0.3,0.3-0.6,0.6-0.6h11.2c0.3,0,0.6,0.3,0.6,0.6v4.5
		C64,30,63.7,30.3,63.4,30.3z M52.8,29.2h10.1v-3.4H52.8V29.2z"/>
</g>
<g>
	<path class="st0" d="M34.3,16.8C34.3,16.8,34.2,16.8,34.3,16.8c-0.2,0-0.4-0.1-0.5-0.3L31.5,12c-0.1-0.2-0.1-0.4,0.1-0.6l9-11.2
		C40.7,0.1,40.9,0,41.1,0c0.2,0,0.4,0.1,0.4,0.3l2.2,4.5c0.1,0.2,0.1,0.4-0.1,0.6l-9,11.2C34.6,16.8,34.4,16.8,34.3,16.8z
		 M32.7,11.8l1.7,3.4L42.6,5l-1.7-3.4L32.7,11.8z"/>
</g>
<g>
	<path class="st0" d="M52.2,63.9H11.8c-0.3,0-0.6-0.3-0.6-0.6V25.8H0.6c-0.3,0-0.6-0.3-0.6-0.6c0-11.4,9.3-20.8,20.8-20.8
		c0.2,0,0.3,0.1,0.4,0.2l8.4,10.5l1.9-3.7c0.2-0.4,0.8-0.4,1,0l1.9,3.7l8.4-10.5c0.1-0.1,0.3-0.2,0.4-0.2C54.7,4.5,64,13.8,64,25.2
		c0,0.3-0.3,0.6-0.6,0.6H52.8v37.6C52.8,63.7,52.5,63.9,52.2,63.9z M12.4,62.8h39.3V25.2c0-0.3,0.3-0.6,0.6-0.6h10.6
		C62.6,14.2,54,5.8,43.5,5.6l-8.8,11c-0.1,0.1-0.3,0.2-0.5,0.2c-0.2,0-0.4-0.1-0.4-0.3L32,13l-1.7,3.5c-0.1,0.2-0.3,0.3-0.4,0.3
		c-0.2,0-0.4-0.1-0.5-0.2l-8.8-11C10,5.8,1.5,14.2,1.2,24.7h10.6c0.3,0,0.6,0.3,0.6,0.6V62.8z"/>
</g>
<g>
	<path class="st0" d="M32,12.3c-0.2,0-0.3-0.1-0.4-0.2l-9-11.2c-0.1-0.2-0.2-0.4-0.1-0.6C22.6,0.1,22.8,0,23.1,0H41
		c0.2,0,0.4,0.1,0.5,0.3c0.1,0.2,0.1,0.4-0.1,0.6l-9,11.2C32.4,12.3,32.2,12.3,32,12.3z M24.2,1.1l7.8,9.8l7.8-9.8H24.2z"/>
</g>
<g>
	<path class="st0" d="M25.4,22.4h-9c-0.3,0-0.6-0.3-0.6-0.6c0-0.3,0.3-0.6,0.6-0.6h9c0.3,0,0.6,0.3,0.6,0.6
		C26,22.2,25.7,22.4,25.4,22.4z"/>
</g>
<g>
	<path class="st0" d="M52.2,25.8c-0.3,0-0.6-0.3-0.6-0.6v-4.5c0-0.3,0.3-0.6,0.6-0.6c0.3,0,0.6,0.3,0.6,0.6v4.5
		C52.8,25.6,52.5,25.8,52.2,25.8z"/>
</g>
<g>
	<path class="st0" d="M11.8,25.8c-0.3,0-0.6-0.3-0.6-0.6v-4.5c0-0.3,0.3-0.6,0.6-0.6c0.3,0,0.6,0.3,0.6,0.6v4.5
		C12.4,25.6,12.1,25.8,11.8,25.8z"/>
</g>
<g>
	<path class="st0" d="M34.3,63.9h-4.5c-0.3,0-0.6-0.3-0.6-0.6V16.3c0-0.1,0-0.2,0.1-0.3l2.2-4.5c0.2-0.4,0.8-0.4,1,0l2.2,4.5
		c0,0.1,0.1,0.2,0.1,0.3v47.1C34.8,63.7,34.6,63.9,34.3,63.9z M30.3,62.8h3.4V16.4L32,13l-1.7,3.4V62.8z"/>
</g>
<g>
	<path class="st0" d="M29.8,16.8c-0.2,0-0.3-0.1-0.4-0.2l-9-11.2c-0.1-0.2-0.2-0.4-0.1-0.6l2.2-4.5C22.6,0.1,22.8,0,23,0
		c0.2,0,0.4,0.1,0.5,0.2l9,11.2c0.1,0.2,0.2,0.4,0.1,0.6l-2.2,4.5C30.2,16.7,30,16.8,29.8,16.8C29.8,16.8,29.8,16.8,29.8,16.8z
		 M21.5,5l8.2,10.3l1.7-3.4L23.2,1.6L21.5,5z"/>
</g>
</svg>
