<?xml version="1.0" encoding="utf-8"?>
<!-- Generator: Adobe Illustrator 26.1.0, SVG Export Plug-In . SVG Version: 6.00 Build 0)  -->
<svg version="1.1" id="Layer_1" xmlns="http://www.w3.org/2000/svg" xmlns:xlink="http://www.w3.org/1999/xlink" x="0px" y="0px"
	 viewBox="0 0 64 64" style="enable-background:new 0 0 64 64;" xml:space="preserve">
<style type="text/css">
	.st0{fill:#373737;}
</style>
<g>
	<path class="st0" d="M52.2,64H11.8c-0.3,0-0.6-0.3-0.6-0.6v-4.5c0-0.3,0.3-0.6,0.6-0.6h40.4c0.3,0,0.6,0.3,0.6,0.6v4.5
		C52.8,63.8,52.5,64,52.2,64z M12.3,62.9h39.3v-3.4H12.3V62.9z"/>
</g>
<g>
	<path class="st0" d="M9.5,28.1c-0.3,0-0.6-0.3-0.6-0.6v-9C9,18.2,9.2,18,9.5,18c0.3,0,0.6,0.3,0.6,0.6v9
		C10.1,27.8,9.9,28.1,9.5,28.1z"/>
</g>
<g>
	<path class="st0" d="M54.5,28.1c-0.3,0-0.6-0.3-0.6-0.6v-9c0-0.3,0.3-0.6,0.6-0.6c0.3,0,0.6,0.3,0.6,0.6v9
		C55,27.8,54.8,28.1,54.5,28.1z"/>
</g>
<g>
	<path class="st0" d="M63.4,32.6h-9c-0.3,0-0.6-0.3-0.6-0.6v-4.5c0-0.3,0.3-0.6,0.6-0.6h9c0.3,0,0.6,0.3,0.6,0.6V32
		C64,32.3,63.8,32.6,63.4,32.6z M55,31.4h7.9v-3.4H55V31.4z"/>
</g>
<g>
	<path class="st0" d="M9.5,32.6h-9C0.2,32.6,0,32.3,0,32v-4.5c0-0.3,0.3-0.6,0.6-0.6h9c0.3,0,0.6,0.3,0.6,0.6V32
		C10.1,32.3,9.9,32.6,9.5,32.6z M1.1,31.4H9v-3.4H1.1V31.4z"/>
</g>
<g>
	<path class="st0" d="M54.5,59.5H9.5c-0.3,0-0.6-0.3-0.6-0.6V28.1H0.6c-0.3,0-0.6-0.3-0.6-0.6v-9c0-7.7,6.3-14,14-14h4.5
		c0.1,0,0.2,0,0.3,0.1L32,13.4l13.2-8.8c0.1-0.1,0.2-0.1,0.3-0.1H50c7.7,0,14,6.3,14,14v9c0,0.3-0.3,0.6-0.6,0.6H55v30.9
		C55,59.3,54.8,59.5,54.5,59.5z M10.1,58.4h43.8V27.5c0-0.3,0.3-0.6,0.6-0.6h8.4v-8.4c0-7.1-5.8-12.9-12.9-12.9h-4.3l-13.3,8.9
		c-0.2,0.1-0.4,0.1-0.6,0L18.4,5.6H14c-7.1,0-12.9,5.8-12.9,12.9v8.4h8.4c0.3,0,0.6,0.3,0.6,0.6V58.4z"/>
</g>
<g>
	<path class="st0" d="M32,14.6c-0.1,0-0.2,0-0.3-0.1L18.4,5.6H14c-0.3,0-0.6-0.3-0.6-0.6C13.5,2.3,16,0,19.2,0h25.7
		c3.1,0,5.7,2.3,5.7,5.1c0,0.3-0.3,0.6-0.6,0.6h-4.3l-13.3,8.9C32.2,14.6,32.1,14.6,32,14.6z M14.6,4.5h3.9c0.1,0,0.2,0,0.3,0.1
		L32,13.4l13.2-8.8c0.1-0.1,0.2-0.1,0.3-0.1h3.9c-0.3-1.9-2.2-3.4-4.5-3.4H19.2C16.9,1.1,15,2.6,14.6,4.5z"/>
</g>
<g>
	<path class="st0" d="M36.5,28.1c-0.3,0-0.6-0.3-0.6-0.6V11.8c0-0.3,0.3-0.6,0.6-0.6s0.6,0.3,0.6,0.6v15.7
		C37.1,27.8,36.8,28.1,36.5,28.1z"/>
</g>
<g>
	<path class="st0" d="M27.5,28.1c-0.3,0-0.6-0.3-0.6-0.6V11.8c0-0.3,0.3-0.6,0.6-0.6c0.3,0,0.6,0.3,0.6,0.6v15.7
		C28.1,27.8,27.8,28.1,27.5,28.1z"/>
</g>
<g>
	<path class="st0" d="M32,14.6c-0.2,0-0.4-0.1-0.5-0.3l-9-13.5c-0.1-0.2-0.1-0.4,0-0.6C22.6,0.1,22.8,0,23,0h18
		c0.2,0,0.4,0.1,0.5,0.3c0.1,0.2,0.1,0.4,0,0.6l-9,13.5C32.4,14.5,32.2,14.6,32,14.6z M24.1,1.1L32,13l7.9-11.9H24.1z"/>
</g>
</svg>
