<?xml version="1.0" encoding="utf-8"?>
<!-- Generator: Adobe Illustrator 26.1.0, SVG Export Plug-In . SVG Version: 6.00 Build 0)  -->
<svg version="1.1" id="Layer_1" xmlns="http://www.w3.org/2000/svg" xmlns:xlink="http://www.w3.org/1999/xlink" x="0px" y="0px"
	 viewBox="0 0 64 64" style="enable-background:new 0 0 64 64;" xml:space="preserve">
<style type="text/css">
	.st0{fill:#373737;}
</style>
<g>
	<path class="st0" d="M43.2,5.6H20.8c-0.3,0-0.6-0.3-0.6-0.6V0.6c0-0.3,0.3-0.6,0.6-0.6h22.4c0.3,0,0.6,0.3,0.6,0.6V5
		C43.7,5.3,43.5,5.6,43.2,5.6z M21.4,4.5h21.3V1.1H21.4V4.5z"/>
</g>
<g>
	<path class="st0" d="M47.7,59.5H36.5c-0.3,0-0.5-0.2-0.6-0.5L32,25.6L28.1,59c0,0.3-0.3,0.5-0.6,0.5H16.3c-0.3,0-0.6-0.3-0.6-0.6
		V16.4c0,0,0-0.1,0-0.1L18,4.9c0.1-0.3,0.3-0.5,0.5-0.5h26.9c0.3,0,0.5,0.2,0.5,0.5l2.2,11.4c0,0,0,0.1,0,0.1V59
		C48.2,59.3,48,59.5,47.7,59.5z M37,58.4h10.1V16.5L45,5.6H19l-2.1,10.9v41.9H27l4.4-37.7c0-0.3,0.3-0.5,0.6-0.5l0,0
		c0.3,0,0.5,0.2,0.6,0.5L37,58.4z"/>
</g>
<g>
	<path class="st0" d="M43.2,59.5h-6.7c-0.3,0-0.5-0.2-0.6-0.5L32,25.6L28.1,59c0,0.3-0.3,0.5-0.6,0.5h-6.7c-0.3,0-0.6-0.3-0.6-0.6
		V16.4c0,0,0-0.1,0-0.1l2.2-11.4c0.1-0.3,0.3-0.5,0.5-0.5H41c0.3,0,0.5,0.2,0.5,0.5l2.2,11.4c0,0,0,0.1,0,0.1V59
		C43.7,59.3,43.5,59.5,43.2,59.5z M37,58.4h5.7V16.5L40.5,5.6h-17l-2.1,10.9v41.9H27l4.4-37.7c0-0.3,0.3-0.5,0.6-0.5l0,0
		c0.3,0,0.5,0.2,0.6,0.5L37,58.4z"/>
</g>
<g>
	<path class="st0" d="M46.5,64h-9c-0.3,0-0.6-0.3-0.6-0.6V59c0-0.3,0.3-0.6,0.6-0.6h9c0.3,0,0.6,0.3,0.6,0.6v4.5
		C47.1,63.7,46.9,64,46.5,64z M38.2,62.9H46v-3.4h-7.8V62.9z"/>
</g>
<g>
	<path class="st0" d="M26.4,64h-9c-0.3,0-0.6-0.3-0.6-0.6V59c0-0.3,0.3-0.6,0.6-0.6h9c0.3,0,0.6,0.3,0.6,0.6v4.5
		C27,63.7,26.7,64,26.4,64z M18,62.9h7.8v-3.4H18V62.9z"/>
</g>
</svg>
