<?xml version="1.0" encoding="utf-8"?>
<!-- Generator: Adobe Illustrator 26.1.0, SVG Export Plug-In . SVG Version: 6.00 Build 0)  -->
<svg version="1.1" id="Layer_1" xmlns="http://www.w3.org/2000/svg" xmlns:xlink="http://www.w3.org/1999/xlink" x="0px" y="0px"
	 viewBox="0 0 64 64" style="enable-background:new 0 0 64 64;" xml:space="preserve">
<style type="text/css">
	.Graphic_x0020_Style_x0020_64{fill:#373737;}
	.st0{fill:#373737;}
</style>
<g>
	<g>
		<path class="st0" d="M52.2,64H11.8c-0.3,0-0.6-0.3-0.6-0.6V25.8H2.8c-0.3,0-0.6-0.3-0.6-0.6v-4.5C2.2,9.3,11.6,0,23,0
			c0.3,0,0.6,0.3,0.6,0.6v2.2c0,2.4,0.9,4.5,2.7,6.1c1.7,1.6,4,2.4,6.3,2.3c4.4-0.3,7.9-4.1,7.9-8.7V0.6C40.4,0.2,40.7,0,41,0
			c11.5,0,20.8,9.3,20.8,20.8v4.5c0,0.3-0.3,0.6-0.6,0.6h-8.4v37.6C52.8,63.8,52.5,64,52.2,64z M12.3,62.9h39.3V25.3
			c0-0.3,0.3-0.6,0.6-0.6h8.4v-3.9c0-10.6-8.5-19.3-19.1-19.6v1.4c0,5.2-3.9,9.5-8.9,9.8c-2.7,0.2-5.2-0.7-7.2-2.6
			c-1.9-1.8-3-4.3-3-7V1.1c-10.6,0.3-19.1,9-19.1,19.6v3.9h8.4c0.3,0,0.6,0.3,0.6,0.6V62.9z"/>
	</g>
</g>
<g>
	<g>
		<path class="st0" d="M11.8,30.3h-9c-0.3,0-0.6-0.3-0.6-0.6v-4.5c0-0.3,0.3-0.6,0.6-0.6h9c0.3,0,0.6,0.3,0.6,0.6v4.5
			C12.3,30.1,12.1,30.3,11.8,30.3z M3.4,29.2h7.9v-3.4H3.4V29.2z"/>
	</g>
</g>
<g>
	<g>
		<path class="st0" d="M61.2,30.3h-9c-0.3,0-0.6-0.3-0.6-0.6v-4.5c0-0.3,0.3-0.6,0.6-0.6h9c0.3,0,0.6,0.3,0.6,0.6v4.5
			C61.8,30.1,61.5,30.3,61.2,30.3z M52.8,29.2h7.9v-3.4h-7.9V29.2z"/>
	</g>
</g>
<g>
	<g>
		<path class="st0" d="M32,48.3c-6.5,0-11.8-5.3-11.8-11.8S25.5,24.7,32,24.7S43.8,30,43.8,36.5S38.5,48.3,32,48.3z M32,25.8
			c-5.9,0-10.7,4.8-10.7,10.7c0,5.9,4.8,10.7,10.7,10.7s10.7-4.8,10.7-10.7C42.7,30.6,37.9,25.8,32,25.8z"/>
	</g>
</g>
<g>
	<g>
		<circle class="Graphic_x0020_Style_x0020_64" cx="27.5" cy="34.2" r="1.1"/>
	</g>
</g>
<g>
	<g>
		<circle class="Graphic_x0020_Style_x0020_64" cx="36.5" cy="34.2" r="1.1"/>
	</g>
</g>
<g>
	<g>
		<path class="st0" d="M32,43.8c-2.2,0-3.9-1.8-3.9-3.9c0-0.3,0.3-0.6,0.6-0.6s0.6,0.3,0.6,0.6c0,1.5,1.3,2.8,2.8,2.8
			c1.5,0,2.8-1.3,2.8-2.8c0-0.3,0.3-0.6,0.6-0.6s0.6,0.3,0.6,0.6C35.9,42,34.2,43.8,32,43.8z"/>
	</g>
</g>
<g>
	<g>
		<path class="st0" d="M32,12.3c-5.3,0-9.5-4.3-9.5-9.5V0.6C22.5,0.2,22.7,0,23,0s0.6,0.3,0.6,0.6c0,2.1,3.9,3.9,8.4,3.9
			s8.4-1.8,8.4-3.9C40.4,0.2,40.7,0,41,0s0.6,0.3,0.6,0.6v2.2C41.5,8.1,37.3,12.3,32,12.3z M23.6,3c0.1,4.6,3.8,8.3,8.4,8.3
			s8.3-3.7,8.4-8.3c-1.6,1.6-4.7,2.6-8.4,2.6S25.2,4.6,23.6,3z"/>
	</g>
</g>
</svg>
