<?xml version="1.0" encoding="utf-8"?>
<!-- Generator: Adobe Illustrator 26.1.0, SVG Export Plug-In . SVG Version: 6.00 Build 0)  -->
<svg version="1.1" id="Layer_1" xmlns="http://www.w3.org/2000/svg" xmlns:xlink="http://www.w3.org/1999/xlink" x="0px" y="0px"
	 viewBox="0 0 106 114" style="enable-background:new 0 0 106 114;" xml:space="preserve">
<style type="text/css">
	.st0{fill:#373737;}
</style>
<g>
	<path class="st0" d="M81,114H25c-0.6,0-1-0.4-1-1v-8c0-0.6,0.4-1,1-1h56c0.6,0,1,0.4,1,1v8C82,113.6,81.6,114,81,114z M26,112h54
		v-6H26V112z"/>
	<path class="st0" d="M89,114h-8c-0.6,0-1-0.4-1-1v-8c0-0.6,0.4-1,1-1h8c0.6,0,1,0.4,1,1v8C90,113.6,89.6,114,89,114z M82,112h6v-6
		h-6V112z"/>
	<path class="st0" d="M25,114h-8c-0.6,0-1-0.4-1-1v-8c0-0.6,0.4-1,1-1h8c0.6,0,1,0.4,1,1v8C26,113.6,25.6,114,25,114z M18,112h6v-6
		h-6V112z"/>
	<path class="st0" d="M17,90c-0.6,0-1-0.4-1-1V37c0-0.6,0.4-1,1-1s1,0.4,1,1v52C18,89.6,17.6,90,17,90z"/>
	<path class="st0" d="M89,90c-0.6,0-1-0.4-1-1V37c0-0.6,0.4-1,1-1s1,0.4,1,1v52C90,89.6,89.6,90,89,90z"/>
	<path class="st0" d="M89,106H17c-0.6,0-1-0.4-1-1V90H1c-0.6,0-1-0.4-1-1V37c0-13.8,11.2-25,25-25c0.2,0,0.5,0.1,0.7,0.2L53,35.7
		l27.3-23.4c0.2-0.2,0.4-0.2,0.7-0.2c13.8,0,25,11.2,25,25v52c0,0.6-0.4,1-1,1H90v15C90,105.6,89.6,106,89,106z M18,104h70V89
		c0-0.6,0.4-1,1-1h15V37c0-12.6-10.1-22.8-22.6-23L53.7,37.8c-0.4,0.3-0.9,0.3-1.3,0L24.6,14C12.1,14.2,2,24.4,2,37v51h15
		c0.6,0,1,0.4,1,1V104z"/>
	<path class="st0" d="M53,38c-0.2,0-0.5-0.1-0.7-0.2l-28-24C24.1,13.6,24,13.3,24,13c0-7.2,5.8-13,13-13h32c7.2,0,13,5.8,13,13
		c0,0.3-0.1,0.6-0.3,0.8l-28,24C53.5,37.9,53.2,38,53,38z M26,12.5l27,23.1l27-23.1C79.8,6.7,74.9,2,69,2H37
		C31.1,2,26.2,6.7,26,12.5z M81,13L81,13L81,13z"/>
	<path class="st0" d="M53,38c-0.4,0-0.7-0.2-0.9-0.5l-14-24c-0.2-0.3-0.2-0.7,0-1c0.2-0.3,0.5-0.5,0.9-0.5h28c0.4,0,0.7,0.2,0.9,0.5
		c0.2,0.3,0.2,0.7,0,1l-14,24C53.7,37.8,53.4,38,53,38z M40.7,14L53,35l12.3-21H40.7z"/>
	<path class="st0" d="M105,98H89c-0.6,0-1-0.4-1-1v-8c0-0.6,0.4-1,1-1h16c0.6,0,1,0.4,1,1v8C106,97.6,105.6,98,105,98z M90,96h14v-6
		H90V96z"/>
	<path class="st0" d="M17,98H1c-0.6,0-1-0.4-1-1v-8c0-0.6,0.4-1,1-1h16c0.6,0,1,0.4,1,1v8C18,97.6,17.6,98,17,98z M2,96h14v-6H2V96z
		"/>
	<path class="st0" d="M53,114c-0.6,0-1-0.4-1-1V37c0-0.6,0.4-1,1-1s1,0.4,1,1v76C54,113.6,53.6,114,53,114z"/>
	<path class="st0" d="M81,106H53c-0.6,0-1-0.4-1-1V73c0-0.6,0.4-1,1-1h16c0.3,0,0.6,0.1,0.8,0.4l12,16c0.1,0.2,0.2,0.4,0.2,0.6v16
		C82,105.6,81.6,106,81,106z M54,104h26V89.3L68.5,74H54V104z"/>
	<path class="st0" d="M53,106H25c-0.6,0-1-0.4-1-1V89c0-0.2,0.1-0.4,0.2-0.6l12-16c0.2-0.3,0.5-0.4,0.8-0.4h16c0.6,0,1,0.4,1,1v32
		C54,105.6,53.6,106,53,106z M26,104h26V74H37.5L26,89.3V104z"/>
</g>
</svg>
